<svg id="Group_4791" data-name="Group 4791" xmlns="http://www.w3.org/2000/svg" xmlns:xlink="http://www.w3.org/1999/xlink" width="200" height="200" viewBox="0 0 200 200">
  <defs>
    <clipPath id="clip-path">
      <rect id="Rectangle_9133" data-name="Rectangle 9133" width="200" height="200" fill="none" stroke="#000" stroke-width="0.75"/>
    </clipPath>
  </defs>
  <g id="Group_4790" data-name="Group 4790" clip-path="url(#clip-path)">
    <path id="Path_36238" data-name="Path 36238" d="M200.466,100.483A99.983,99.983,0,1,1,100.483.5a99.984,99.984,0,0,1,99.983,99.983" transform="translate(0 0)" fill="#b4d7a4" stroke="#707070" stroke-width="0.75"/>
    <ellipse id="Ellipse_790" data-name="Ellipse 790" cx="99.983" cy="99.983" rx="99.983" ry="99.983" transform="translate(0.5 0.5)" fill="none" stroke="#231f20" stroke-width="0.75"/>
    <line id="Line_2760" data-name="Line 2760" x2="28.241" transform="translate(29.817 47.599)" fill="none" stroke="#231f20" stroke-width="0.75"/>
    <line id="Line_2761" data-name="Line 2761" y2="24.057" transform="translate(29.817 47.599)" fill="none" stroke="#231f20" stroke-width="0.75"/>
    <line id="Line_2762" data-name="Line 2762" x1="28.241" transform="translate(142.907 47.599)" fill="none" stroke="#231f20" stroke-width="0.75"/>
    <line id="Line_2763" data-name="Line 2763" y2="24.057" transform="translate(171.149 47.599)" fill="none" stroke="#231f20" stroke-width="0.75"/>
    <line id="Line_2764" data-name="Line 2764" y1="28.241" transform="translate(29.817 125.126)" fill="none" stroke="#231f20" stroke-width="0.75"/>
    <line id="Line_2765" data-name="Line 2765" x2="24.058" transform="translate(29.817 153.367)" fill="none" stroke="#231f20" stroke-width="0.75"/>
    <line id="Line_2766" data-name="Line 2766" y1="28.241" transform="translate(171.149 125.126)" fill="none" stroke="#231f20" stroke-width="0.75"/>
    <line id="Line_2767" data-name="Line 2767" x1="24.057" transform="translate(147.092 153.367)" fill="none" stroke="#231f20" stroke-width="0.75"/>
    <path id="Path_36239" data-name="Path 36239" d="M51.549,65.874h98.962a4.35,4.35,0,0,1,4.35,4.35v59.812a4.35,4.35,0,0,1-4.35,4.35H51.549a4.35,4.35,0,0,1-4.35-4.35V70.224a4.35,4.35,0,0,1,4.35-4.35" transform="translate(-0.008 -0.011)" fill="#fff" stroke="#707070" stroke-width="0.75"/>
    <rect id="Rectangle_9129" data-name="Rectangle 9129" width="106.575" height="67.425" rx="2" transform="translate(47.735 66.406)" fill="none" stroke="#000" stroke-width="0.75"/>
    <path id="Path_36240" data-name="Path 36240" d="M81.194,90.451h-.9c-1.976,1.925-5.063,4.214-8.545,4.214s-6.568-2.284-8.546-4.214h-.9c-3.905,0-7.069,2.385-7.069,5.329v6.106c0,3.614-.167,6.09,0,12.444,5.784.041,12.2,0,16.521,0H88.271V95.777c0-2.945-3.168-5.328-7.076-5.328" transform="translate(-0.009 -0.015)" fill="#e1c989" stroke="#000" stroke-width="0.75"/>
    <path id="Path_36241" data-name="Path 36241" d="M81.194,90.451h-.9c-1.976,1.925-5.063,4.214-8.545,4.214s-6.568-2.284-8.546-4.214h-.9c-3.905,0-7.069,2.385-7.069,5.329v6.106c0,3.614-.167,6.09,0,12.444,5.784.041,12.2,0,16.521,0H88.271V95.777c0-2.945-3.168-5.328-7.076-5.328" transform="translate(-0.009 -0.015)" fill="none" stroke="#000" stroke-width="0.75"/>
    <path id="Path_36242" data-name="Path 36242" d="M72.433,72.5a8.973,8.973,0,1,1-8.972,8.974A8.973,8.973,0,0,1,72.433,72.5Z" transform="translate(-0.011 -0.012)" fill="#d38b5a" stroke="#000" stroke-width="0.75"/>
    <path id="Path_36243" data-name="Path 36243" d="M72.433,72.5a8.973,8.973,0,1,1-8.972,8.974A8.973,8.973,0,0,1,72.433,72.5h0" transform="translate(-0.011 -0.012)" fill="none" stroke="#000" stroke-width="0.75"/>
    <path id="Path_36244" data-name="Path 36244" d="M71.832,72.533a8.968,8.968,0,0,0,8.942,8.3c.218,0,.424-.017.635-.032a8.968,8.968,0,0,0-8.943-8.3c-.217,0-.424.018-.635.033" transform="translate(-0.012 -0.012)" fill="#0a0b0b" stroke="#000" stroke-width="0.75"/>
    <path id="Path_36245" data-name="Path 36245" d="M64.019,78.468c.295.029.595.046.9.046a8.971,8.971,0,0,0,8.45-5.963c-.3-.029-.6-.046-.9-.046a8.969,8.969,0,0,0-8.448,5.963" transform="translate(-0.011 -0.012)" fill="#0a0b0b" stroke="#000" stroke-width="0.75"/>
    <rect id="Rectangle_9130" data-name="Rectangle 9130" width="54.375" height="13.05" transform="translate(91.778 72.387)" fill="#66b9d0" stroke="#707070" stroke-width="0.75"/>
    <rect id="Rectangle_9131" data-name="Rectangle 9131" width="53.287" height="11.962" transform="translate(92.322 72.931)" fill="none" stroke="#707070" stroke-width="0.75"/>
    <rect id="Rectangle_9132" data-name="Rectangle 9132" width="32.624" height="9.787" transform="translate(55.348 118.606)" fill="none" stroke="#707070" stroke-width="0.75"/>
    <line id="Line_2768" data-name="Line 2768" x2="32.037" transform="translate(92.91 93.029)" fill="none" stroke="#707070" stroke-width="0.75"/>
    <line id="Line_2769" data-name="Line 2769" x2="17.899" transform="translate(92.91 103.631)" fill="none" stroke="#707070" stroke-width="0.75"/>
    <line id="Line_2770" data-name="Line 2770" x2="18.443" transform="translate(127.166 103.631)" fill="none" stroke="#707070" stroke-width="0.75"/>
    <line id="Line_2771" data-name="Line 2771" y1="0.074" x2="52.699" transform="translate(92.91 114.256)" fill="none" stroke="#707070" stroke-width="0.75"/>
    <line id="Line_2772" data-name="Line 2772" x2="52.699" transform="translate(92.91 125.03)" fill="none" stroke="#707070" stroke-width="0.75"/>
  </g>
</svg>
