<svg xmlns="http://www.w3.org/2000/svg" xmlns:xlink="http://www.w3.org/1999/xlink" width="200" height="200" viewBox="0 0 200 200">
  <defs>
    <clipPath id="clip-path">
      <rect id="Rectangle_9135" data-name="Rectangle 9135" width="200" height="200" fill="none" stroke="#707070" stroke-width="0.75"/>
    </clipPath>
  </defs>
  <g id="Group_4793" data-name="Group 4793" transform="translate(-0.468)">
    <g id="Group_4792" data-name="Group 4792" transform="translate(0.468)" clip-path="url(#clip-path)">
      <path id="Path_36246" data-name="Path 36246" d="M200.466,100.483A99.983,99.983,0,1,1,100.483.5a99.984,99.984,0,0,1,99.983,99.983" transform="translate(-0.788 0)" fill="#b4d7a4" stroke="#707070" stroke-width="0.75"/>
      <ellipse id="Ellipse_791" data-name="Ellipse 791" cx="99.983" cy="99.983" rx="99.983" ry="99.983" transform="translate(-0.288 0.5)" fill="none" stroke="#231f20" stroke-width="0.75"/>
      <path id="Path_36247" data-name="Path 36247" d="M137.2,135.149H58.28A15.849,15.849,0,0,1,42.431,119.3V74.771c0-4.386-1.391-9.6,2.626-13.334,3.286-3.371,8.855-2.515,13.222-2.515H137.2c4.394,0,10.931-.756,13.617,2.767,2.614,2.625,2.233,8.723,2.233,13.083V119.3A15.849,15.849,0,0,1,137.2,135.149" transform="translate(-0.815 -0.018)" fill="#e0e691" stroke="#707070" stroke-width="0.75"/>
      <rect id="Rectangle_9134" data-name="Rectangle 9134" width="110.619" height="76.227" rx="8" transform="translate(41.617 58.904)" fill="none" stroke="#231f20" stroke-width="0.75"/>
      <path id="Path_36248" data-name="Path 36248" d="M63.992,83.026a7.186,7.186,0,0,0,2.8,5.693,7.188,7.188,0,0,0,0-11.384,7.19,7.19,0,0,0-2.8,5.691" transform="translate(-0.799 -0.013)" fill="#c4ddb6" stroke="#707070" stroke-width="0.75"/>
      <path id="Path_36249" data-name="Path 36249" d="M63.992,83.026a7.186,7.186,0,0,0,2.8,5.693,7.188,7.188,0,0,0,0-11.384A7.19,7.19,0,0,0,63.992,83.026Z" transform="translate(-0.799 -0.013)" fill="none" stroke="#040505" stroke-linecap="round" stroke-linejoin="round" stroke-width="0.75"/>
      <path id="Path_36250" data-name="Path 36250" d="M60.785,93.39a7.185,7.185,0,0,0,6.006,2.046,7.189,7.189,0,0,0-8.052-8.05,7.187,7.187,0,0,0,2.046,6" transform="translate(-0.798 -0.015)" fill="#c8a69d" stroke="#707070" stroke-width="0.75"/>
      <path id="Path_36251" data-name="Path 36251" d="M60.785,93.39a7.185,7.185,0,0,0,6.006,2.046,7.189,7.189,0,0,0-8.052-8.05A7.187,7.187,0,0,0,60.785,93.39Z" transform="translate(-0.798 -0.015)" fill="none" stroke="#040505" stroke-linecap="round" stroke-linejoin="round" stroke-width="0.75"/>
      <path id="Path_36252" data-name="Path 36252" d="M68.838,93.517a7.188,7.188,0,0,0-2.047,6.006,7.188,7.188,0,0,0,8.052-8.052,7.189,7.189,0,0,0-6,2.046" transform="translate(-0.8 -0.015)" fill="#dfe494" stroke="#707070" stroke-width="0.75"/>
      <path id="Path_36253" data-name="Path 36253" d="M68.838,93.517a7.188,7.188,0,0,0-2.047,6.006,7.188,7.188,0,0,0,8.052-8.052A7.189,7.189,0,0,0,68.838,93.517Z" transform="translate(-0.8 -0.015)" fill="none" stroke="#040505" stroke-linecap="round" stroke-linejoin="round" stroke-width="0.75"/>
      <path id="Path_36254" data-name="Path 36254" d="M60.785,103.208a7.188,7.188,0,0,0,6.006,2.047A7.188,7.188,0,0,0,58.739,97.2a7.186,7.186,0,0,0,2.046,6" transform="translate(-0.798 -0.016)" fill="#c4ddb6" stroke="#707070" stroke-width="0.75"/>
      <path id="Path_36255" data-name="Path 36255" d="M60.785,103.208a7.188,7.188,0,0,0,6.006,2.047A7.188,7.188,0,0,0,58.739,97.2,7.186,7.186,0,0,0,60.785,103.208Z" transform="translate(-0.798 -0.016)" fill="none" stroke="#040505" stroke-linecap="round" stroke-linejoin="round" stroke-width="0.75"/>
      <path id="Path_36256" data-name="Path 36256" d="M68.838,103.333a7.189,7.189,0,0,0-2.047,6.006,7.189,7.189,0,0,0,8.052-8.052,7.19,7.19,0,0,0-6,2.046" transform="translate(-0.8 -0.017)" fill="#fff" stroke="#707070" stroke-width="0.75"/>
      <path id="Path_36257" data-name="Path 36257" d="M68.838,103.333a7.189,7.189,0,0,0-2.047,6.006,7.189,7.189,0,0,0,8.052-8.052A7.186,7.186,0,0,0,68.838,103.333Z" transform="translate(-0.8 -0.017)" fill="none" stroke="#040505" stroke-linecap="round" stroke-linejoin="round" stroke-width="0.75"/>
      <line id="Line_2773" data-name="Line 2773" y1="27.316" transform="translate(65.991 88.659)" fill="none" stroke="#040505" stroke-linecap="round" stroke-linejoin="round" stroke-width="0.75"/>
      <path id="Path_36258" data-name="Path 36258" d="M103.322,82a8.479,8.479,0,0,0,3.3,6.716,8.482,8.482,0,0,0,0-13.432,8.48,8.48,0,0,0-3.3,6.716" transform="translate(-0.806 -0.013)" fill="#c4ddb6" stroke="#707070" stroke-width="0.75"/>
      <path id="Path_36259" data-name="Path 36259" d="M103.322,82a8.479,8.479,0,0,0,3.3,6.716,8.482,8.482,0,0,0,0-13.432A8.48,8.48,0,0,0,103.322,82Z" transform="translate(-0.806 -0.013)" fill="none" stroke="#040505" stroke-linecap="round" stroke-linejoin="round" stroke-width="0.75"/>
      <path id="Path_36260" data-name="Path 36260" d="M100.618,93.39a7.185,7.185,0,0,0,6.006,2.046,7.189,7.189,0,0,0-8.052-8.052,7.191,7.191,0,0,0,2.046,6.006" transform="translate(-0.805 -0.015)" fill="#c49f96" stroke="#707070" stroke-width="0.75"/>
      <path id="Path_36261" data-name="Path 36261" d="M100.618,93.39a7.185,7.185,0,0,0,6.006,2.046,7.189,7.189,0,0,0-8.052-8.052A7.191,7.191,0,0,0,100.618,93.39Z" transform="translate(-0.805 -0.015)" fill="none" stroke="#040505" stroke-linecap="round" stroke-linejoin="round" stroke-width="0.75"/>
      <path id="Path_36262" data-name="Path 36262" d="M108.672,93.517a7.189,7.189,0,0,0-2.047,6.006,7.188,7.188,0,0,0,8.052-8.052,7.19,7.19,0,0,0-6,2.046" transform="translate(-0.806 -0.015)" fill="#dfe494" stroke="#707070" stroke-width="0.75"/>
      <path id="Path_36263" data-name="Path 36263" d="M108.672,93.517a7.189,7.189,0,0,0-2.047,6.006,7.188,7.188,0,0,0,8.052-8.052A7.186,7.186,0,0,0,108.672,93.517Z" transform="translate(-0.806 -0.015)" fill="none" stroke="#040505" stroke-linecap="round" stroke-linejoin="round" stroke-width="0.75"/>
      <path id="Path_36264" data-name="Path 36264" d="M100.618,103.208a7.189,7.189,0,0,0,6.006,2.047A7.188,7.188,0,0,0,98.572,97.2a7.19,7.19,0,0,0,2.046,6" transform="translate(-0.805 -0.016)" fill="#c4ddb6" stroke="#707070" stroke-width="0.75"/>
      <path id="Path_36265" data-name="Path 36265" d="M100.618,103.208a7.188,7.188,0,0,0,6.006,2.047A7.188,7.188,0,0,0,98.572,97.2,7.186,7.186,0,0,0,100.618,103.208Z" transform="translate(-0.805 -0.016)" fill="none" stroke="#040505" stroke-linecap="round" stroke-linejoin="round" stroke-width="0.75"/>
      <path id="Path_36266" data-name="Path 36266" d="M108.671,103.333a7.19,7.19,0,0,0-2.047,6.006,7.189,7.189,0,0,0,8.052-8.052,7.19,7.19,0,0,0-6,2.046" transform="translate(-0.806 -0.017)" fill="#fff" stroke="#707070" stroke-width="0.75"/>
      <path id="Path_36267" data-name="Path 36267" d="M108.671,103.333a7.19,7.19,0,0,0-2.047,6.006,7.189,7.189,0,0,0,8.052-8.052A7.186,7.186,0,0,0,108.671,103.333Z" transform="translate(-0.806 -0.017)" fill="none" stroke="#040505" stroke-linecap="round" stroke-linejoin="round" stroke-width="0.75"/>
      <line id="Line_2774" data-name="Line 2774" y1="27.316" transform="translate(105.818 88.659)" fill="none" stroke="#040505" stroke-linecap="round" stroke-linejoin="round" stroke-width="0.75"/>
      <path id="Path_36268" data-name="Path 36268" d="M83.05,83.026a7.186,7.186,0,0,0,2.8,5.693,7.188,7.188,0,0,0,0-11.384,7.187,7.187,0,0,0-2.8,5.691" transform="translate(-0.802 -0.013)" fill="#fff" stroke="#707070" stroke-width="0.75"/>
      <path id="Path_36269" data-name="Path 36269" d="M83.05,83.026a7.186,7.186,0,0,0,2.8,5.693,7.188,7.188,0,0,0,0-11.384A7.187,7.187,0,0,0,83.05,83.026Z" transform="translate(-0.802 -0.013)" fill="none" stroke="#040505" stroke-linecap="round" stroke-linejoin="round" stroke-width="0.75"/>
      <path id="Path_36270" data-name="Path 36270" d="M79.844,93.39a7.189,7.189,0,0,0,6.006,2.046,7.19,7.19,0,0,0-8.052-8.05,7.187,7.187,0,0,0,2.046,6" transform="translate(-0.802 -0.015)" fill="#c8a69d" stroke="#707070" stroke-width="0.75"/>
      <path id="Path_36271" data-name="Path 36271" d="M79.844,93.39a7.189,7.189,0,0,0,6.006,2.046,7.19,7.19,0,0,0-8.052-8.05A7.187,7.187,0,0,0,79.844,93.39Z" transform="translate(-0.802 -0.015)" fill="none" stroke="#040505" stroke-linecap="round" stroke-linejoin="round" stroke-width="0.75"/>
      <path id="Path_36272" data-name="Path 36272" d="M87.9,93.517a7.185,7.185,0,0,0-2.046,6.006A7.189,7.189,0,0,0,93.9,91.471,7.191,7.191,0,0,0,87.9,93.517" transform="translate(-0.803 -0.015)" fill="#c4ddb6" stroke="#707070" stroke-width="0.75"/>
      <path id="Path_36273" data-name="Path 36273" d="M87.9,93.517a7.185,7.185,0,0,0-2.046,6.006A7.189,7.189,0,0,0,93.9,91.471,7.191,7.191,0,0,0,87.9,93.517Z" transform="translate(-0.803 -0.015)" fill="none" stroke="#040505" stroke-linecap="round" stroke-linejoin="round" stroke-width="0.75"/>
      <path id="Path_36274" data-name="Path 36274" d="M79.844,103.208a7.19,7.19,0,0,0,6.006,2.047A7.189,7.189,0,0,0,77.8,97.2a7.19,7.19,0,0,0,2.046,6" transform="translate(-0.802 -0.016)" fill="#dfe494" stroke="#707070" stroke-width="0.75"/>
      <path id="Path_36275" data-name="Path 36275" d="M79.844,103.208a7.189,7.189,0,0,0,6.006,2.047A7.189,7.189,0,0,0,77.8,97.2,7.186,7.186,0,0,0,79.844,103.208Z" transform="translate(-0.802 -0.016)" fill="none" stroke="#040505" stroke-linecap="round" stroke-linejoin="round" stroke-width="0.75"/>
      <line id="Line_2775" data-name="Line 2775" y1="16.673" transform="translate(85.047 88.659)" fill="none" stroke="#040505" stroke-linecap="round" stroke-linejoin="round" stroke-width="0.75"/>
      <path id="Path_36276" data-name="Path 36276" d="M131.469,74.348a7.189,7.189,0,0,1-2.8,5.692,7.189,7.189,0,0,1,0-11.385,7.188,7.188,0,0,1,2.8,5.693" transform="translate(-0.81 -0.012)" fill="#c4ddb6" stroke="#707070" stroke-width="0.75"/>
      <path id="Path_36277" data-name="Path 36277" d="M131.469,74.348a7.189,7.189,0,0,1-2.8,5.692,7.189,7.189,0,0,1,0-11.385A7.188,7.188,0,0,1,131.469,74.348Z" transform="translate(-0.81 -0.012)" fill="none" stroke="#040505" stroke-linecap="round" stroke-linejoin="round" stroke-width="0.75"/>
      <path id="Path_36278" data-name="Path 36278" d="M134.674,84.714a7.186,7.186,0,0,1-6.006,2.046,7.19,7.19,0,0,1,8.053-8.051,7.187,7.187,0,0,1-2.047,6" transform="translate(-0.81 -0.013)" fill="#c0988e" stroke="#707070" stroke-width="0.75"/>
      <path id="Path_36279" data-name="Path 36279" d="M134.674,84.714a7.186,7.186,0,0,1-6.006,2.046,7.19,7.19,0,0,1,8.053-8.051A7.187,7.187,0,0,1,134.674,84.714Z" transform="translate(-0.81 -0.013)" fill="none" stroke="#040505" stroke-linecap="round" stroke-linejoin="round" stroke-width="0.75"/>
      <path id="Path_36280" data-name="Path 36280" d="M126.625,84.84a7.187,7.187,0,0,1,2.045,6.006,7.189,7.189,0,0,1-8.052-8.053,7.191,7.191,0,0,1,6.007,2.047" transform="translate(-0.809 -0.014)" fill="#c4ddb6" stroke="#707070" stroke-width="0.75"/>
      <path id="Path_36281" data-name="Path 36281" d="M126.625,84.84a7.187,7.187,0,0,1,2.045,6.006,7.189,7.189,0,0,1-8.052-8.053A7.191,7.191,0,0,1,126.625,84.84Z" transform="translate(-0.809 -0.014)" fill="none" stroke="#040505" stroke-linecap="round" stroke-linejoin="round" stroke-width="0.75"/>
      <path id="Path_36282" data-name="Path 36282" d="M134.675,94.53a7.19,7.19,0,0,1-6.006,2.047,7.189,7.189,0,0,1,8.053-8.052,7.187,7.187,0,0,1-2.047,6" transform="translate(-0.81 -0.015)" fill="#dfe494" stroke="#707070" stroke-width="0.75"/>
      <path id="Path_36283" data-name="Path 36283" d="M134.675,94.53a7.19,7.19,0,0,1-6.006,2.047,7.189,7.189,0,0,1,8.053-8.052A7.187,7.187,0,0,1,134.675,94.53Z" transform="translate(-0.81 -0.015)" fill="none" stroke="#040505" stroke-linecap="round" stroke-linejoin="round" stroke-width="0.75"/>
      <path id="Path_36284" data-name="Path 36284" d="M126.625,94.656a7.188,7.188,0,0,1,2.045,6.006,7.19,7.19,0,0,1-8.052-8.052,7.193,7.193,0,0,1,6.007,2.046" transform="translate(-0.809 -0.016)" fill="#fff" stroke="#707070" stroke-width="0.75"/>
      <path id="Path_36285" data-name="Path 36285" d="M126.625,94.656a7.188,7.188,0,0,1,2.045,6.006,7.19,7.19,0,0,1-8.052-8.052A7.193,7.193,0,0,1,126.625,94.656Z" transform="translate(-0.809 -0.016)" fill="none" stroke="#040505" stroke-linecap="round" stroke-linejoin="round" stroke-width="0.75"/>
      <path id="Path_36286" data-name="Path 36286" d="M134.675,104.347a7.189,7.189,0,0,1-6.006,2.047,7.189,7.189,0,0,1,8.053-8.052,7.187,7.187,0,0,1-2.047,6" transform="translate(-0.81 -0.017)" fill="#c0988e" stroke="#707070" stroke-width="0.75"/>
      <path id="Path_36287" data-name="Path 36287" d="M134.675,104.347a7.189,7.189,0,0,1-6.006,2.047,7.189,7.189,0,0,1,8.053-8.052A7.187,7.187,0,0,1,134.675,104.347Z" transform="translate(-0.81 -0.017)" fill="none" stroke="#040505" stroke-linecap="round" stroke-linejoin="round" stroke-width="0.75"/>
      <path id="Path_36288" data-name="Path 36288" d="M134.675,114.78a7.19,7.19,0,0,1-6.006,2.047,7.189,7.189,0,0,1,8.053-8.052,7.187,7.187,0,0,1-2.047,6" transform="translate(-0.81 -0.018)" fill="#c4ddb6" stroke="#707070" stroke-width="0.75"/>
      <path id="Path_36289" data-name="Path 36289" d="M134.675,114.78a7.19,7.19,0,0,1-6.006,2.047,7.189,7.189,0,0,1,8.053-8.052A7.187,7.187,0,0,1,134.675,114.78Z" transform="translate(-0.81 -0.018)" fill="none" stroke="#040505" stroke-linecap="round" stroke-linejoin="round" stroke-width="0.75"/>
      <path id="Path_36290" data-name="Path 36290" d="M126.625,104.472a7.188,7.188,0,0,1,2.045,6.006,7.19,7.19,0,0,1-8.052-8.052,7.193,7.193,0,0,1,6.007,2.046" transform="translate(-0.809 -0.017)" fill="#dfe494" stroke="#707070" stroke-width="0.75"/>
      <path id="Path_36291" data-name="Path 36291" d="M126.625,104.472a7.188,7.188,0,0,1,2.045,6.006,7.19,7.19,0,0,1-8.052-8.052A7.193,7.193,0,0,1,126.625,104.472Z" transform="translate(-0.809 -0.017)" fill="none" stroke="#040505" stroke-linecap="round" stroke-linejoin="round" stroke-width="0.75"/>
      <line id="Line_2776" data-name="Line 2776" y1="45.409" transform="translate(127.86 79.982)" fill="none" stroke="#040505" stroke-linecap="round" stroke-linejoin="round" stroke-width="0.75"/>
      <path id="Path_36292" data-name="Path 36292" d="M112.625,114.533c-.653.378-1.337,1.081-1.955,1.036a2.151,2.151,0,0,1-1.442-1.436c-.172-.913.677-1.567,1.641-1.417.644.1,1.184.762,1.771,1.172,0,.215-.011.43-.015.645" transform="translate(-0.807 -0.019)" fill="#fff" stroke="#707070" stroke-width="0.75"/>
      <path id="Path_36293" data-name="Path 36293" d="M112.625,114.533c-.653.378-1.337,1.081-1.955,1.036a2.151,2.151,0,0,1-1.442-1.436c-.172-.913.677-1.567,1.641-1.417.644.1,1.184.762,1.771,1.172Z" transform="translate(-0.807 -0.019)" fill="none" stroke="#000" stroke-width="0.75"/>
      <path id="Path_36294" data-name="Path 36294" d="M70.3,122.2c.533.883,1.067,1.374,1.02,1.814a1.514,1.514,0,0,1-1.187.9c-.42-.03-1.108-.66-1.1-1.018.009-.444.612-.876,1.265-1.7" transform="translate(-0.8 -0.021)" fill="#fff" stroke="#707070" stroke-width="0.75"/>
      <path id="Path_36295" data-name="Path 36295" d="M70.3,122.2c.533.883,1.067,1.374,1.02,1.814a1.514,1.514,0,0,1-1.187.9c-.42-.03-1.108-.66-1.1-1.018C69.049,123.451,69.653,123.018,70.3,122.2Z" transform="translate(-0.8 -0.021)" fill="none" stroke="#000" stroke-width="0.75"/>
      <path id="Path_36296" data-name="Path 36296" d="M129.687,123.494c-.827.542-1.293,1.085-1.708,1.054-.437-.033-.825-.612-1.235-.953.382-.365.725-.964,1.159-1.026.412-.058.918.447,1.784.925" transform="translate(-0.81 -0.021)" fill="#fff" stroke="#707070" stroke-width="0.75"/>
      <path id="Path_36297" data-name="Path 36297" d="M129.687,123.494c-.827.542-1.293,1.085-1.708,1.054-.437-.033-.825-.612-1.235-.953.382-.365.725-.964,1.159-1.026C128.315,122.511,128.822,123.016,129.687,123.494Z" transform="translate(-0.81 -0.021)" fill="none" stroke="#000" stroke-width="0.75"/>
      <path id="Path_36298" data-name="Path 36298" d="M159.374,139.167c1.407,1.274,3.91,12.063,10.255,15.683a13.229,13.229,0,0,1-8.438-.637s-.244,3.256-4.752,5.426c0,0-.536-12.841-3.773-16.354s6.709-4.119,6.709-4.119" transform="translate(-0.814 -0.023)" fill="#e0e1e0" stroke="#707070" stroke-width="0.75"/>
      <path id="Path_36299" data-name="Path 36299" d="M159.374,139.167c1.407,1.274,3.91,12.063,10.255,15.683a13.229,13.229,0,0,1-8.438-.637s-.244,3.256-4.752,5.426c0,0-.536-12.841-3.773-16.354s6.709-4.119,6.709-4.119" transform="translate(-0.814 -0.023)" fill="none" stroke="#000" stroke-width="0.75"/>
      <path id="Path_36300" data-name="Path 36300" d="M137.163,139.171c-1.407,1.274-3.91,12.063-10.255,15.683a13.229,13.229,0,0,0,8.438-.637s.244,3.256,4.752,5.426c0,0,.536-12.841,3.773-16.354s-6.709-4.119-6.709-4.119" transform="translate(-0.81 -0.024)" fill="#e0e1e0" stroke="#707070" stroke-width="0.75"/>
      <path id="Path_36301" data-name="Path 36301" d="M137.163,139.171c-1.407,1.274-3.91,12.063-10.255,15.683a13.229,13.229,0,0,0,8.438-.637s.244,3.256,4.752,5.426c0,0,.536-12.841,3.773-16.354s-6.709-4.119-6.709-4.119" transform="translate(-0.81 -0.024)" fill="none" stroke="#000" stroke-width="0.75"/>
      <path id="Path_36302" data-name="Path 36302" d="M149.8,111.576l4.511,9.142a1.606,1.606,0,0,0,1.206.876L165.6,123.06a1.6,1.6,0,0,1,.887,2.732l-7.3,7.114a1.6,1.6,0,0,0-.461,1.417l1.727,10.047a1.6,1.6,0,0,1-2.323,1.688l-9.027-4.745a1.6,1.6,0,0,0-1.49,0l-9.022,4.744a1.6,1.6,0,0,1-2.324-1.688L138,134.32a1.6,1.6,0,0,0-.461-1.417l-7.3-7.113a1.6,1.6,0,0,1,.887-2.733l10.089-1.465a1.6,1.6,0,0,0,1.2-.877l4.512-9.141a1.6,1.6,0,0,1,2.872,0" transform="translate(-0.81 -0.019)" fill="#e1c989" stroke="#707070" stroke-width="0.75"/>
      <path id="Path_36303" data-name="Path 36303" d="M149.8,111.576l4.511,9.142a1.606,1.606,0,0,0,1.206.876L165.6,123.06a1.6,1.6,0,0,1,.887,2.732l-7.3,7.114a1.6,1.6,0,0,0-.461,1.417l1.727,10.047a1.6,1.6,0,0,1-2.323,1.688l-9.027-4.745a1.6,1.6,0,0,0-1.49,0l-9.022,4.744a1.6,1.6,0,0,1-2.324-1.688L138,134.32a1.6,1.6,0,0,0-.461-1.417l-7.3-7.113a1.6,1.6,0,0,1,.887-2.733l10.089-1.465a1.6,1.6,0,0,0,1.2-.877l4.512-9.141a1.6,1.6,0,0,1,2.872,0" transform="translate(-0.81 -0.019)" fill="none" stroke="#000" stroke-width="0.75"/>
      <path id="Path_36304" data-name="Path 36304" d="M154.376,130.257a6.094,6.094,0,1,1-6.094-6.094,6.094,6.094,0,0,1,6.094,6.094" transform="translate(-0.812 -0.021)" fill="#fff" stroke="#707070" stroke-width="0.75"/>
      <path id="Path_36305" data-name="Path 36305" d="M154.376,130.257a6.094,6.094,0,1,1-6.094-6.094,6.094,6.094,0,0,1,6.094,6.094" transform="translate(-0.812 -0.021)" fill="none" stroke="#000" stroke-width="0.75"/>
      <path id="Path_36306" data-name="Path 36306" d="M143.609,130.214l2.258,2.4,7.088-4.7" transform="translate(-0.813 -0.022)" fill="none" stroke="#050505" stroke-width="0.75"/>
      <path id="Path_36307" data-name="Path 36307" d="M43.582,133.106,46.5,128.73q5.281-7.911,10.569-15.816a6.633,6.633,0,0,1,1.336-1.523,3.621,3.621,0,0,1,5.369,4.536c-.753,1.379-1.683,2.661-2.538,3.984-.226.351-.462.695-.73,1.1,3.533.4,4.821,2.81,3.56,5.893,2.981,0,5.093,2.719,3.259,6.051.218.044.413.091.611.121a3.676,3.676,0,0,1,2.667,5.876c-1.114,1.754-2.3,3.462-3.451,5.19q-3.817,5.722-7.638,11.442c-4.455,6.635-12.253,8.392-18.973,4.106a40.219,40.219,0,0,1-6.241-5.028,9.816,9.816,0,0,1-2.722-9.283Q33.4,135.24,35.2,125.1c.207-1.161.368-2.334.642-3.48.5-2.108,2.045-3.329,3.864-3.148a3.728,3.728,0,0,1,3.371,3.905c.094,3.22.146,6.442.22,9.662.008.342.04.683.061,1.024l.22.043m7.478-8.953c-2.467,3.7-4.923,7.4-7.417,11.076a3.793,3.793,0,0,1-1.035.747,4.171,4.171,0,0,1-.448-1.206c-.1-2.647-.15-5.3-.22-7.945-.043-1.647-.059-3.294-.159-4.938a2.208,2.208,0,0,0-1.795-2.134,2.128,2.128,0,0,0-2.52,1.155,6.349,6.349,0,0,0-.6,1.819c-.668,3.732-1.291,7.472-1.947,11.206-.73,4.156-1.527,8.3-2.2,12.467a8.526,8.526,0,0,0,2.387,7.39,27.351,27.351,0,0,0,6.93,5.364c5.408,3.024,12.121,1.791,15.588-3.133,4.145-5.887,8.069-11.932,12-17.963a2.9,2.9,0,0,0,.16-2.3c-.725-1.857-3.106-1.93-4.3-.179-2.118,3.109-4.185,6.253-6.276,9.381a2.988,2.988,0,0,1-.574.769.552.552,0,0,1-.92-.6,2.974,2.974,0,0,1,.492-.824q3.967-5.948,7.933-11.895c1.011-1.523.833-2.946-.422-3.784s-2.625-.453-3.632,1.054q-3.314,4.96-6.626,9.923a2.925,2.925,0,0,1-.594.75.567.567,0,0,1-.907-.585,2.714,2.714,0,0,1,.447-.843q2.469-3.715,4.949-7.423c1.193-1.79,2.423-3.554,3.561-5.378a2.37,2.37,0,0,0-1.868-3.712,2.6,2.6,0,0,0-2.448,1.441q-3.271,4.925-6.562,9.837a3.028,3.028,0,0,1-.568.774,2.407,2.407,0,0,1-.83.23,2.3,2.3,0,0,1-.118-.847,3.01,3.01,0,0,1,.5-.818Q56.043,125.511,61.057,118c.5-.745,1.026-1.472,1.477-2.244a2.439,2.439,0,1,0-4.129-2.6c-2.46,3.657-4.9,7.33-7.345,11" transform="translate(-0.794 -0.019)" stroke="#707070" stroke-width="0.75"/>
      <path id="Path_36308" data-name="Path 36308" d="M43.582,133.106,46.5,128.73q5.281-7.911,10.569-15.816a6.633,6.633,0,0,1,1.336-1.523,3.621,3.621,0,0,1,5.369,4.536c-.753,1.379-1.683,2.661-2.538,3.984-.226.351-.462.695-.73,1.1,3.533.4,4.821,2.81,3.56,5.893,2.981,0,5.093,2.719,3.259,6.051.218.044.413.091.611.121a3.676,3.676,0,0,1,2.667,5.876c-1.114,1.754-2.3,3.462-3.451,5.19q-3.817,5.722-7.638,11.442c-4.455,6.635-12.253,8.392-18.973,4.106a40.219,40.219,0,0,1-6.241-5.028,9.816,9.816,0,0,1-2.722-9.283Q33.4,135.24,35.2,125.1c.207-1.161.368-2.334.642-3.48.5-2.108,2.045-3.329,3.864-3.148a3.728,3.728,0,0,1,3.371,3.905c.094,3.22.146,6.442.22,9.662.008.342.04.683.061,1.024Zm7.478-8.953c-2.467,3.7-4.923,7.4-7.417,11.076a3.793,3.793,0,0,1-1.035.747,4.171,4.171,0,0,1-.448-1.206c-.1-2.647-.15-5.3-.22-7.945-.043-1.647-.059-3.294-.159-4.938a2.208,2.208,0,0,0-1.795-2.134,2.128,2.128,0,0,0-2.52,1.155,6.349,6.349,0,0,0-.6,1.819c-.668,3.732-1.291,7.472-1.947,11.206-.73,4.156-1.527,8.3-2.2,12.467a8.526,8.526,0,0,0,2.387,7.39,27.351,27.351,0,0,0,6.93,5.364c5.408,3.024,12.121,1.791,15.588-3.133,4.145-5.887,8.069-11.932,12-17.963a2.9,2.9,0,0,0,.16-2.3c-.725-1.857-3.106-1.93-4.3-.179-2.118,3.109-4.185,6.253-6.276,9.381a2.988,2.988,0,0,1-.574.769.552.552,0,0,1-.92-.6,2.974,2.974,0,0,1,.492-.824q3.967-5.948,7.933-11.895c1.011-1.523.833-2.946-.422-3.784s-2.625-.453-3.632,1.054q-3.314,4.96-6.626,9.923a2.925,2.925,0,0,1-.594.75.567.567,0,0,1-.907-.585,2.714,2.714,0,0,1,.447-.843q2.469-3.715,4.949-7.423c1.193-1.79,2.423-3.554,3.561-5.378a2.37,2.37,0,0,0-1.868-3.712,2.6,2.6,0,0,0-2.448,1.441q-3.271,4.925-6.562,9.837a3.028,3.028,0,0,1-.568.774,2.407,2.407,0,0,1-.83.23,2.3,2.3,0,0,1-.118-.847,3.01,3.01,0,0,1,.5-.818Q56.043,125.511,61.057,118c.5-.745,1.026-1.472,1.477-2.244a2.439,2.439,0,1,0-4.129-2.6C55.945,116.815,53.507,120.487,51.06,124.153Z" transform="translate(-0.794 -0.019)" fill="none" stroke="#231f20" stroke-width="0.75"/>
      <path id="Path_36309" data-name="Path 36309" d="M50.538,124.15c2.447-3.666,5.1-7.832,7.557-11.488a2.988,2.988,0,0,1,4.193-.736,3.074,3.074,0,0,1,.83,3.793c-.45.773-1.294,2.094-1.791,2.84-3.34,5.007-6.954,9.455-10.294,14.463a2.994,2.994,0,0,0-.5.818c-.065.256.024.278.071.562.281-.07.276.028.49-.132a3.238,3.238,0,0,0,.656-.771c2.19-3.278,4.53-6.43,6.712-9.712.588-.885,1.816-2.014,2.971-1.922A2.811,2.811,0,0,1,63.555,126c-1.138,1.823-2.673,3.7-3.865,5.489-1.65,2.475-3.355,4.817-5,7.295a2.8,2.8,0,0,0-.415.874c-.042.189-.1.3.057.4s.243-.044.4-.16a1.484,1.484,0,0,0,.462-.5c2.211-3.306,4.451-6.522,6.662-9.829,1.007-1.506,3-2.286,4.258-1.441a3.175,3.175,0,0,1,.59,4.346c-2.635,3.971-5.7,7.594-8.3,11.589-.182.28-.5.854-.488.833.1-.208-.235.478-.075.582s.364-.087.549-.227a3.35,3.35,0,0,0,.743-.714c2.091-3.127,4.427-6.311,6.545-9.42,1.193-1.751,3.977-1.58,4.7.277a3.88,3.88,0,0,1-.124,2.679C66.317,144.1,62.343,150.3,58.2,156.183c-3.467,4.923-10.841,6.461-16.249,3.436a26.992,26.992,0,0,1-6.99-5.184c-1.931-2.11-3.311-4.74-2.854-7.572.674-4.164,1.6-8.714,2.33-12.871.656-3.734,1.312-7.218,1.981-10.95a13.626,13.626,0,0,1,.874-2.679A2.652,2.652,0,0,1,40.2,119.2a2.715,2.715,0,0,1,2.156,2.271c.1,1.644.073,3.188.116,4.834.07,2.649.012,4.808.117,7.456a6.456,6.456,0,0,0,.21,1.627,3.134,3.134,0,0,0,.816-.863c2.494-3.677,4.457-6.679,6.924-10.374" transform="translate(-0.794 -0.019)" fill="#fff" stroke="#707070" stroke-width="0.75"/>
      <path id="Path_36310" data-name="Path 36310" d="M50.538,124.15c2.447-3.666,5.1-7.832,7.557-11.488a2.988,2.988,0,0,1,4.193-.736,3.074,3.074,0,0,1,.83,3.793c-.45.773-1.294,2.094-1.791,2.84-3.34,5.007-6.954,9.455-10.294,14.463a2.994,2.994,0,0,0-.5.818c-.065.256.024.278.071.562.281-.07.276.028.49-.132a3.238,3.238,0,0,0,.656-.771c2.19-3.278,4.53-6.43,6.712-9.712.588-.885,1.816-2.014,2.971-1.922A2.811,2.811,0,0,1,63.555,126c-1.138,1.823-2.673,3.7-3.865,5.489-1.65,2.475-3.355,4.817-5,7.295a2.8,2.8,0,0,0-.415.874c-.042.189-.1.3.057.4s.243-.044.4-.16a1.484,1.484,0,0,0,.462-.5c2.211-3.306,4.451-6.522,6.662-9.829,1.007-1.506,3-2.286,4.258-1.441a3.175,3.175,0,0,1,.59,4.346c-2.635,3.971-5.7,7.594-8.3,11.589-.182.28-.5.854-.488.833.1-.208-.235.478-.075.582s.364-.087.549-.227a3.35,3.35,0,0,0,.743-.714c2.091-3.127,4.427-6.311,6.545-9.42,1.193-1.751,3.977-1.58,4.7.277a3.88,3.88,0,0,1-.124,2.679C66.317,144.1,62.343,150.3,58.2,156.183c-3.467,4.923-10.841,6.461-16.249,3.436a26.992,26.992,0,0,1-6.99-5.184c-1.931-2.11-3.311-4.74-2.854-7.572.674-4.164,1.6-8.714,2.33-12.871.656-3.734,1.312-7.218,1.981-10.95a13.626,13.626,0,0,1,.874-2.679A2.652,2.652,0,0,1,40.2,119.2a2.715,2.715,0,0,1,2.156,2.271c.1,1.644.073,3.188.116,4.834.07,2.649.012,4.808.117,7.456a6.456,6.456,0,0,0,.21,1.627,3.134,3.134,0,0,0,.816-.863C46.108,130.847,48.071,127.845,50.538,124.15Z" transform="translate(-0.794 -0.019)" fill="none" stroke="#231f20" stroke-width="0.75"/>
      <path id="Path_36311" data-name="Path 36311" d="M84.169,64.89V43.881a3.915,3.915,0,0,1,3.9-3.9h19.315a3.915,3.915,0,0,1,3.9,3.9V64.89a3.915,3.915,0,0,1-3.9,3.9H88.072a3.915,3.915,0,0,1-3.9-3.9" transform="translate(-0.803 -0.007)" fill="#ad7668" stroke="#707070" stroke-width="0.75"/>
      <path id="Path_36312" data-name="Path 36312" d="M84.169,64.89V43.881a3.915,3.915,0,0,1,3.9-3.9h19.315a3.915,3.915,0,0,1,3.9,3.9V64.89a3.915,3.915,0,0,1-3.9,3.9H88.072a3.915,3.915,0,0,1-3.9-3.9" transform="translate(-0.803 -0.007)" fill="none" stroke="#000" stroke-width="0.75"/>
      <path id="Path_36313" data-name="Path 36313" d="M92.161,49.308a3.081,3.081,0,1,1,3.08-3.08,3.081,3.081,0,0,1-3.08,3.08" transform="translate(-0.803 -0.007)" fill="#fff" stroke="#707070" stroke-width="0.75"/>
      <path id="Path_36314" data-name="Path 36314" d="M92.161,49.308a3.081,3.081,0,1,1,3.08-3.08,3.081,3.081,0,0,1-3.08,3.08" transform="translate(-0.803 -0.007)" fill="none" stroke="#000" stroke-width="0.75"/>
      <path id="Path_36315" data-name="Path 36315" d="M99.039,57.246a3.084,3.084,0,1,1,3.08-3.087v0a3.083,3.083,0,0,1-3.08,3.084" transform="translate(-0.805 -0.009)" fill="#fff" stroke="#707070" stroke-width="0.75"/>
      <path id="Path_36316" data-name="Path 36316" d="M99.039,57.246a3.084,3.084,0,1,1,3.08-3.087v0A3.083,3.083,0,0,1,99.039,57.246Z" transform="translate(-0.805 -0.009)" fill="none" stroke="#231f20" stroke-width="0.75"/>
      <line id="Line_2777" data-name="Line 2777" x2="2.923" transform="translate(85.352 46.218)" fill="none" stroke="#fff" stroke-width="0.75"/>
      <line id="Line_2778" data-name="Line 2778" x2="13.63" transform="translate(94.44 46.218)" fill="none" stroke="#fff" stroke-width="0.75"/>
      <line id="Line_2779" data-name="Line 2779" x2="8.816" transform="translate(85.352 54.152)" fill="none" stroke="#fff" stroke-width="0.75"/>
      <line id="Line_2780" data-name="Line 2780" x2="6.753" transform="translate(101.318 54.152)" fill="none" stroke="#fff" stroke-width="0.75"/>
      <path id="Path_36317" data-name="Path 36317" d="M95.737,59.934a3.084,3.084,0,1,1-3.08,3.088v0a3.085,3.085,0,0,1,3.08-3.085" transform="translate(-0.804 -0.01)" fill="#fff" stroke="#707070" stroke-width="0.75"/>
      <path id="Path_36318" data-name="Path 36318" d="M95.737,59.934a3.084,3.084,0,1,1-3.08,3.088v0A3.085,3.085,0,0,1,95.737,59.934Z" transform="translate(-0.804 -0.01)" fill="none" stroke="#231f20" stroke-width="0.75"/>
      <line id="Line_2781" data-name="Line 2781" x1="8.816" transform="translate(99.001 63.009)" fill="none" stroke="#fff" stroke-width="0.75"/>
      <line id="Line_2782" data-name="Line 2782" x1="6.753" transform="translate(85.099 63.009)" fill="none" stroke="#fff" stroke-width="0.75"/>
    </g>
  </g>
</svg>
